<svg width="110pt" height="88pt" viewBox="0 0 110 88" xmlns="http://www.w3.org/2000/svg">
  <path d="m80.4 58.77h-21.25a3.95 3.95 0 0 1 -3.94-3.94 3.95 3.95 0 0 1 3.94-3.94h21.27a3.95 3.95 0 0 1 3.94 3.94c0 2.17-1.78 3.94-3.95 3.94zm-61.44 26.6c-1.3 0-2.56-.16-3.7-.4-7.71-1.77-13.03-8.67-13.81-18.04-.2-2.17 1.42-4.06 3.58-4.25s4.06 1.42 4.25 3.58c.52 5.9 3.4 10.04 7.72 11.02 4.96 1.14 12.76-1.8 19.65-13.55 7.48-12.68 13.08-23.5 19.3-37.5 0-.04.04-.08.04-.08 3.86-8.07 12.37-12.5 21.15-11.03 8.82 1.46 15 8.35 16.15 18l5.8 47.74c.28 2.17-1.26 4.14-3.43 4.37-2.17.28-4.14-1.26-4.37-3.43l-5.8-47.77c-.7-6.1-4.3-10.24-9.6-11.15-4.4-.75-10.04 1.02-12.76 6.62-6.38 14.22-12.05 25.3-19.7 38.2-7.63 13.1-17.05 17.66-24.46 17.66z"/></svg>
